<?xml version="1.0" encoding="UTF-8"?>
<svg xmlns="http://www.w3.org/2000/svg" xmlns:xlink="http://www.w3.org/1999/xlink" width="12pt" height="12pt" viewBox="0 0 12 12" version="1.1">
<g id="surface1">
<path style=" stroke:none;fill-rule:nonzero;fill:rgb(0%,0%,0%);fill-opacity:1;" d="M 11.703125 4.882812 L 10.632812 4.753906 C 10.519531 4.347656 10.363281 3.960938 10.15625 3.601562 L 10.820312 2.757812 C 10.921875 2.628906 10.914062 2.425781 10.792969 2.308594 L 9.691406 1.203125 C 9.574219 1.085938 9.371094 1.074219 9.242188 1.175781 L 8.394531 1.84375 C 8.035156 1.636719 7.652344 1.476562 7.246094 1.367188 L 7.117188 0.296875 C 7.097656 0.132812 6.945312 0 6.78125 0 L 5.21875 0 C 5.054688 0 4.902344 0.132812 4.882812 0.296875 L 4.753906 1.367188 C 4.347656 1.476562 3.960938 1.636719 3.605469 1.84375 L 2.757812 1.179688 C 2.628906 1.074219 2.425781 1.085938 2.308594 1.203125 L 1.203125 2.308594 C 1.085938 2.425781 1.074219 2.628906 1.179688 2.757812 L 1.84375 3.605469 C 1.636719 3.960938 1.476562 4.347656 1.367188 4.757812 L 0.296875 4.882812 C 0.132812 4.902344 0 5.054688 0 5.222656 L 0 6.78125 C 0 6.945312 0.132812 7.097656 0.296875 7.117188 L 1.367188 7.246094 C 1.480469 7.652344 1.636719 8.039062 1.84375 8.394531 L 1.179688 9.242188 C 1.078125 9.375 1.089844 9.574219 1.207031 9.691406 L 2.308594 10.796875 C 2.425781 10.914062 2.628906 10.925781 2.757812 10.824219 L 3.605469 10.15625 C 3.960938 10.363281 4.347656 10.523438 4.753906 10.632812 L 4.882812 11.703125 C 4.902344 11.867188 5.054688 12 5.21875 12 L 6.78125 12 C 6.945312 12 7.097656 11.867188 7.117188 11.703125 L 7.246094 10.632812 C 7.652344 10.523438 8.039062 10.363281 8.394531 10.15625 L 9.242188 10.824219 C 9.371094 10.925781 9.574219 10.914062 9.691406 10.796875 L 10.796875 9.691406 C 10.914062 9.574219 10.925781 9.371094 10.820312 9.242188 L 10.15625 8.394531 C 10.363281 8.039062 10.519531 7.652344 10.632812 7.246094 L 11.703125 7.117188 C 11.867188 7.097656 12 6.945312 12 6.78125 L 12 5.21875 C 12 5.054688 11.867188 4.902344 11.703125 4.882812 Z M 6 9 C 4.34375 9 3 7.65625 3 6 C 3 4.34375 4.34375 3 6 3 C 7.65625 3 9 4.34375 9 6 C 9 7.65625 7.65625 9 6 9 Z M 6 9 "/>
</g>
</svg>
